<svg width="313" height="40" viewBox="0 0 313 40" fill="none" xmlns="http://www.w3.org/2000/svg">
<g filter="url(#filter0_d_30_1291)">
<path d="M59.1055 19.0933C59.1055 18.8267 59.0645 18.5874 58.9824 18.3755C58.9072 18.1567 58.7637 17.9585 58.5518 17.7808C58.3398 17.5962 58.0425 17.415 57.6597 17.2373C57.2769 17.0596 56.7812 16.875 56.1729 16.6836C55.4961 16.4648 54.8535 16.2188 54.2451 15.9453C53.6436 15.6719 53.1104 15.354 52.6455 14.9917C52.1875 14.6226 51.8252 14.1953 51.5586 13.71C51.2988 13.2246 51.1689 12.6606 51.1689 12.0181C51.1689 11.396 51.3057 10.832 51.5791 10.3262C51.8525 9.81348 52.2354 9.37598 52.7275 9.01367C53.2197 8.64453 53.8008 8.36084 54.4707 8.1626C55.1475 7.96436 55.8892 7.86523 56.6958 7.86523C57.7964 7.86523 58.7568 8.06348 59.5771 8.45996C60.3975 8.85645 61.0332 9.3999 61.4844 10.0903C61.9424 10.7808 62.1714 11.5703 62.1714 12.459H59.1157C59.1157 12.0215 59.0234 11.6387 58.8389 11.3105C58.6611 10.9756 58.3877 10.7124 58.0186 10.521C57.6562 10.3296 57.1982 10.2339 56.6445 10.2339C56.1113 10.2339 55.667 10.3159 55.3115 10.48C54.9561 10.6372 54.6895 10.8525 54.5117 11.126C54.334 11.3926 54.2451 11.6934 54.2451 12.0283C54.2451 12.2812 54.3066 12.5103 54.4297 12.7153C54.5596 12.9204 54.751 13.1118 55.0039 13.2896C55.2568 13.4673 55.5679 13.6348 55.937 13.792C56.3062 13.9492 56.7334 14.103 57.2188 14.2534C58.0322 14.4995 58.7466 14.7764 59.3618 15.084C59.9839 15.3916 60.5034 15.7368 60.9204 16.1196C61.3374 16.5024 61.6519 16.9365 61.8638 17.4219C62.0757 17.9072 62.1816 18.4575 62.1816 19.0728C62.1816 19.7222 62.0552 20.3032 61.8022 20.8159C61.5493 21.3286 61.1836 21.7627 60.7051 22.1182C60.2266 22.4736 59.6558 22.7437 58.9927 22.9282C58.3296 23.1128 57.5879 23.2051 56.7676 23.2051C56.0293 23.2051 55.3013 23.1094 54.5835 22.918C53.8657 22.7197 53.2129 22.4224 52.625 22.0259C52.0439 21.6294 51.5791 21.1235 51.2305 20.5083C50.8818 19.8931 50.7075 19.165 50.7075 18.3242H53.7939C53.7939 18.7891 53.8657 19.1821 54.0093 19.5034C54.1528 19.8247 54.3545 20.0845 54.6143 20.2827C54.8809 20.481 55.1953 20.6245 55.5576 20.7134C55.9268 20.8022 56.3301 20.8467 56.7676 20.8467C57.3008 20.8467 57.7383 20.7715 58.0801 20.6211C58.4287 20.4707 58.6851 20.2622 58.8491 19.9956C59.02 19.729 59.1055 19.4282 59.1055 19.0933ZM70.9487 8.07031V23H67.8828V8.07031H70.9487ZM75.5425 8.07031V10.48H63.3608V8.07031H75.5425ZM85.54 8.07031H88.606V17.9346C88.606 19.083 88.3599 20.0503 87.8677 20.8364C87.3823 21.6226 86.709 22.2139 85.8477 22.6104C84.9932 23.0068 84.0088 23.2051 82.8945 23.2051C81.7803 23.2051 80.7891 23.0068 79.9209 22.6104C79.0596 22.2139 78.3828 21.6226 77.8906 20.8364C77.4053 20.0503 77.1626 19.083 77.1626 17.9346V8.07031H80.2388V17.9346C80.2388 18.6045 80.3447 19.1514 80.5566 19.5752C80.7686 19.999 81.0728 20.3101 81.4692 20.5083C81.8726 20.7065 82.3477 20.8057 82.8945 20.8057C83.4551 20.8057 83.9302 20.7065 84.3198 20.5083C84.7163 20.3101 85.0171 19.999 85.2222 19.5752C85.4341 19.1514 85.54 18.6045 85.54 17.9346V8.07031ZM95.7222 23H92.4717L92.4922 20.6006H95.7222C96.5288 20.6006 97.209 20.4194 97.7627 20.0571C98.3164 19.688 98.7334 19.1514 99.0137 18.4473C99.3008 17.7432 99.4443 16.8921 99.4443 15.894V15.166C99.4443 14.4004 99.3623 13.7271 99.1982 13.146C99.041 12.5649 98.8052 12.0762 98.4907 11.6797C98.1763 11.2832 97.79 10.9858 97.332 10.7876C96.874 10.5825 96.3477 10.48 95.7529 10.48H92.4102V8.07031H95.7529C96.751 8.07031 97.6636 8.24121 98.4907 8.58301C99.3247 8.91797 100.046 9.3999 100.654 10.0288C101.263 10.6577 101.731 11.4097 102.059 12.2847C102.394 13.1528 102.562 14.1201 102.562 15.1865V15.894C102.562 16.9536 102.394 17.9209 102.059 18.7959C101.731 19.6709 101.263 20.4229 100.654 21.0518C100.053 21.6738 99.3315 22.1558 98.4907 22.4976C97.6567 22.8325 96.7339 23 95.7222 23ZM94.2148 8.07031V23H91.1387V8.07031H94.2148ZM114.815 20.6006V23H106.868V20.6006H114.815ZM107.873 8.07031V23H104.797V8.07031H107.873ZM113.779 14.1509V16.4888H106.868V14.1509H113.779ZM114.805 8.07031V10.48H106.868V8.07031H114.805ZM128.76 8.07031V23H125.684L119.686 12.9922V23H116.609V8.07031H119.686L125.694 18.0884V8.07031H128.76ZM137.804 8.07031V23H134.738V8.07031H137.804ZM142.398 8.07031V10.48H130.216V8.07031H142.398ZM154.21 19.8828L157.728 8.07031H161.152L155.954 23H153.698L154.21 19.8828ZM150.97 8.07031L154.477 19.8828L155.01 23H152.734L147.566 8.07031H150.97ZM174.667 15.1865V15.894C174.667 17.0288 174.513 18.0474 174.206 18.9497C173.898 19.8521 173.464 20.6211 172.903 21.2568C172.343 21.8857 171.673 22.3677 170.894 22.7026C170.121 23.0376 169.263 23.2051 168.32 23.2051C167.383 23.2051 166.525 23.0376 165.746 22.7026C164.974 22.3677 164.304 21.8857 163.736 21.2568C163.169 20.6211 162.728 19.8521 162.414 18.9497C162.106 18.0474 161.952 17.0288 161.952 15.894V15.1865C161.952 14.0449 162.106 13.0264 162.414 12.1309C162.721 11.2285 163.155 10.4595 163.716 9.82373C164.283 9.18799 164.953 8.70264 165.726 8.36768C166.505 8.03271 167.363 7.86523 168.299 7.86523C169.243 7.86523 170.101 8.03271 170.873 8.36768C171.652 8.70264 172.322 9.18799 172.883 9.82373C173.45 10.4595 173.888 11.2285 174.195 12.1309C174.51 13.0264 174.667 14.0449 174.667 15.1865ZM171.56 15.894V15.166C171.56 14.373 171.488 13.6758 171.345 13.0742C171.201 12.4727 170.989 11.9668 170.709 11.5566C170.429 11.1465 170.087 10.8389 169.684 10.6338C169.28 10.4219 168.819 10.3159 168.299 10.3159C167.78 10.3159 167.318 10.4219 166.915 10.6338C166.519 10.8389 166.18 11.1465 165.9 11.5566C165.626 11.9668 165.418 12.4727 165.274 13.0742C165.131 13.6758 165.059 14.373 165.059 15.166V15.894C165.059 16.6802 165.131 17.3774 165.274 17.9858C165.418 18.5874 165.63 19.0967 165.91 19.5137C166.19 19.9238 166.532 20.2349 166.936 20.4468C167.339 20.6587 167.8 20.7646 168.32 20.7646C168.839 20.7646 169.301 20.6587 169.704 20.4468C170.107 20.2349 170.446 19.9238 170.719 19.5137C170.993 19.0967 171.201 18.5874 171.345 17.9858C171.488 17.3774 171.56 16.6802 171.56 15.894ZM182.86 8.07031V23H179.794V8.07031H182.86ZM187.454 8.07031V10.48H175.272V8.07031H187.454ZM192.478 8.07031V23H189.412V8.07031H192.478ZM207.51 8.07031V23H204.434L198.436 12.9922V23H195.359V8.07031H198.436L204.444 18.0884V8.07031H207.51ZM222.02 15.1968V21.1133C221.787 21.3936 221.428 21.6978 220.943 22.0259C220.458 22.3472 219.832 22.624 219.066 22.8564C218.301 23.0889 217.375 23.2051 216.288 23.2051C215.324 23.2051 214.445 23.0479 213.652 22.7334C212.859 22.4121 212.176 21.9438 211.602 21.3286C211.034 20.7134 210.597 19.9614 210.289 19.0728C209.981 18.1772 209.828 17.1553 209.828 16.0068V15.0737C209.828 13.9253 209.975 12.9033 210.269 12.0078C210.569 11.1123 210.997 10.3569 211.55 9.7417C212.104 9.12646 212.764 8.6582 213.529 8.33691C214.295 8.01562 215.146 7.85498 216.083 7.85498C217.381 7.85498 218.448 8.06689 219.282 8.49072C220.116 8.90771 220.751 9.48877 221.189 10.2339C221.633 10.9722 221.907 11.8198 222.009 12.7769H219.025C218.95 12.271 218.807 11.8301 218.595 11.4541C218.383 11.0781 218.079 10.7842 217.682 10.5723C217.292 10.3604 216.787 10.2544 216.165 10.2544C215.652 10.2544 215.194 10.3604 214.791 10.5723C214.394 10.7773 214.059 11.0815 213.786 11.4849C213.512 11.8882 213.304 12.3872 213.16 12.9819C213.017 13.5767 212.945 14.2671 212.945 15.0532V16.0068C212.945 16.7861 213.02 17.4766 213.17 18.0781C213.321 18.6729 213.543 19.1753 213.837 19.5854C214.138 19.9888 214.507 20.293 214.944 20.498C215.382 20.7031 215.891 20.8057 216.472 20.8057C216.958 20.8057 217.361 20.7646 217.682 20.6826C218.01 20.6006 218.273 20.5015 218.472 20.3853C218.677 20.2622 218.834 20.146 218.943 20.0366V17.3911H216.134V15.1968H222.02ZM237.503 19.0933C237.503 18.8267 237.462 18.5874 237.38 18.3755C237.305 18.1567 237.161 17.9585 236.949 17.7808C236.737 17.5962 236.44 17.415 236.057 17.2373C235.674 17.0596 235.179 16.875 234.57 16.6836C233.894 16.4648 233.251 16.2188 232.643 15.9453C232.041 15.6719 231.508 15.354 231.043 14.9917C230.585 14.6226 230.223 14.1953 229.956 13.71C229.696 13.2246 229.566 12.6606 229.566 12.0181C229.566 11.396 229.703 10.832 229.977 10.3262C230.25 9.81348 230.633 9.37598 231.125 9.01367C231.617 8.64453 232.198 8.36084 232.868 8.1626C233.545 7.96436 234.287 7.86523 235.093 7.86523C236.194 7.86523 237.154 8.06348 237.975 8.45996C238.795 8.85645 239.431 9.3999 239.882 10.0903C240.34 10.7808 240.569 11.5703 240.569 12.459H237.513C237.513 12.0215 237.421 11.6387 237.236 11.3105C237.059 10.9756 236.785 10.7124 236.416 10.521C236.054 10.3296 235.596 10.2339 235.042 10.2339C234.509 10.2339 234.064 10.3159 233.709 10.48C233.354 10.6372 233.087 10.8525 232.909 11.126C232.731 11.3926 232.643 11.6934 232.643 12.0283C232.643 12.2812 232.704 12.5103 232.827 12.7153C232.957 12.9204 233.148 13.1118 233.401 13.2896C233.654 13.4673 233.965 13.6348 234.334 13.792C234.704 13.9492 235.131 14.103 235.616 14.2534C236.43 14.4995 237.144 14.7764 237.759 15.084C238.381 15.3916 238.901 15.7368 239.318 16.1196C239.735 16.5024 240.049 16.9365 240.261 17.4219C240.473 17.9072 240.579 18.4575 240.579 19.0728C240.579 19.7222 240.453 20.3032 240.2 20.8159C239.947 21.3286 239.581 21.7627 239.103 22.1182C238.624 22.4736 238.053 22.7437 237.39 22.9282C236.727 23.1128 235.985 23.2051 235.165 23.2051C234.427 23.2051 233.699 23.1094 232.981 22.918C232.263 22.7197 231.61 22.4224 231.022 22.0259C230.441 21.6294 229.977 21.1235 229.628 20.5083C229.279 19.8931 229.105 19.165 229.105 18.3242H232.191C232.191 18.7891 232.263 19.1821 232.407 19.5034C232.55 19.8247 232.752 20.0845 233.012 20.2827C233.278 20.481 233.593 20.6245 233.955 20.7134C234.324 20.8022 234.728 20.8467 235.165 20.8467C235.698 20.8467 236.136 20.7715 236.478 20.6211C236.826 20.4707 237.083 20.2622 237.247 19.9956C237.417 19.729 237.503 19.4282 237.503 19.0933ZM244.722 8.07031L247.839 14.8789L250.956 8.07031H254.309L249.397 17.5654V23H246.28V17.5654L241.358 8.07031H244.722ZM263.281 19.0933C263.281 18.8267 263.24 18.5874 263.158 18.3755C263.083 18.1567 262.939 17.9585 262.728 17.7808C262.516 17.5962 262.218 17.415 261.835 17.2373C261.453 17.0596 260.957 16.875 260.349 16.6836C259.672 16.4648 259.029 16.2188 258.421 15.9453C257.819 15.6719 257.286 15.354 256.821 14.9917C256.363 14.6226 256.001 14.1953 255.734 13.71C255.475 13.2246 255.345 12.6606 255.345 12.0181C255.345 11.396 255.481 10.832 255.755 10.3262C256.028 9.81348 256.411 9.37598 256.903 9.01367C257.396 8.64453 257.977 8.36084 258.646 8.1626C259.323 7.96436 260.065 7.86523 260.872 7.86523C261.972 7.86523 262.933 8.06348 263.753 8.45996C264.573 8.85645 265.209 9.3999 265.66 10.0903C266.118 10.7808 266.347 11.5703 266.347 12.459H263.292C263.292 12.0215 263.199 11.6387 263.015 11.3105C262.837 10.9756 262.563 10.7124 262.194 10.521C261.832 10.3296 261.374 10.2339 260.82 10.2339C260.287 10.2339 259.843 10.3159 259.487 10.48C259.132 10.6372 258.865 10.8525 258.688 11.126C258.51 11.3926 258.421 11.6934 258.421 12.0283C258.421 12.2812 258.482 12.5103 258.605 12.7153C258.735 12.9204 258.927 13.1118 259.18 13.2896C259.433 13.4673 259.744 13.6348 260.113 13.792C260.482 13.9492 260.909 14.103 261.395 14.2534C262.208 14.4995 262.922 14.7764 263.538 15.084C264.16 15.3916 264.679 15.7368 265.096 16.1196C265.513 16.5024 265.828 16.9365 266.04 17.4219C266.251 17.9072 266.357 18.4575 266.357 19.0728C266.357 19.7222 266.231 20.3032 265.978 20.8159C265.725 21.3286 265.359 21.7627 264.881 22.1182C264.402 22.4736 263.832 22.7437 263.168 22.9282C262.505 23.1128 261.764 23.2051 260.943 23.2051C260.205 23.2051 259.477 23.1094 258.759 22.918C258.042 22.7197 257.389 22.4224 256.801 22.0259C256.22 21.6294 255.755 21.1235 255.406 20.5083C255.058 19.8931 254.883 19.165 254.883 18.3242H257.97C257.97 18.7891 258.042 19.1821 258.185 19.5034C258.329 19.8247 258.53 20.0845 258.79 20.2827C259.057 20.481 259.371 20.6245 259.733 20.7134C260.103 20.8022 260.506 20.8467 260.943 20.8467C261.477 20.8467 261.914 20.7715 262.256 20.6211C262.604 20.4707 262.861 20.2622 263.025 19.9956C263.196 19.729 263.281 19.4282 263.281 19.0933ZM275.125 8.07031V23H272.059V8.07031H275.125ZM279.718 8.07031V10.48H267.537V8.07031H279.718ZM291.49 20.6006V23H283.543V20.6006H291.49ZM284.548 8.07031V23H281.472V8.07031H284.548ZM290.454 14.1509V16.4888H283.543V14.1509H290.454ZM291.479 8.07031V10.48H283.543V8.07031H291.479ZM294.689 8.07031H297.293L301.128 19.0317L304.963 8.07031H307.568L302.174 23H300.083L294.689 8.07031ZM293.284 8.07031H295.878L296.35 18.7549V23H293.284V8.07031ZM306.378 8.07031H308.983V23H305.907V18.7549L306.378 8.07031Z" fill="#E85B81"/>
</g>
<g filter="url(#filter1_d_30_1291)">
<rect x="4" width="32" height="32" rx="8" fill="#E85B81"/>
</g>
<defs>
<filter id="filter0_d_30_1291" x="46.7075" y="7.85498" width="266.275" height="23.3501" filterUnits="userSpaceOnUse" color-interpolation-filters="sRGB">
<feFlood flood-opacity="0" result="BackgroundImageFix"/>
<feColorMatrix in="SourceAlpha" type="matrix" values="0 0 0 0 0 0 0 0 0 0 0 0 0 0 0 0 0 0 127 0" result="hardAlpha"/>
<feOffset dy="4"/>
<feGaussianBlur stdDeviation="2"/>
<feComposite in2="hardAlpha" operator="out"/>
<feColorMatrix type="matrix" values="0 0 0 0 0 0 0 0 0 0 0 0 0 0 0 0 0 0 0.25 0"/>
<feBlend mode="normal" in2="BackgroundImageFix" result="effect1_dropShadow_30_1291"/>
<feBlend mode="normal" in="SourceGraphic" in2="effect1_dropShadow_30_1291" result="shape"/>
</filter>
<filter id="filter1_d_30_1291" x="0" y="0" width="40" height="40" filterUnits="userSpaceOnUse" color-interpolation-filters="sRGB">
<feFlood flood-opacity="0" result="BackgroundImageFix"/>
<feColorMatrix in="SourceAlpha" type="matrix" values="0 0 0 0 0 0 0 0 0 0 0 0 0 0 0 0 0 0 127 0" result="hardAlpha"/>
<feOffset dy="4"/>
<feGaussianBlur stdDeviation="2"/>
<feComposite in2="hardAlpha" operator="out"/>
<feColorMatrix type="matrix" values="0 0 0 0 0 0 0 0 0 0 0 0 0 0 0 0 0 0 0.25 0"/>
<feBlend mode="normal" in2="BackgroundImageFix" result="effect1_dropShadow_30_1291"/>
<feBlend mode="normal" in="SourceGraphic" in2="effect1_dropShadow_30_1291" result="shape"/>
</filter>
</defs>
</svg>
